<svg width="474" height="210" viewBox="0 0 474 210" fill="none" xmlns="http://www.w3.org/2000/svg">
<path d="M465.607 100.134C470.357 102.849 472.526 108.612 470.262 113.592C469.321 115.661 468.302 117.684 467.35 119.133C462.534 126.489 456.169 132.219 448.257 136.325C440.517 140.431 431.228 142.483 420.392 142.483C403.879 142.483 391.064 137.608 381.948 127.857C372.832 117.936 368.273 104.593 368.273 87.8287C368.273 76.0251 370.768 65.0771 375.756 54.9843C380.744 44.7205 387.624 36.595 396.397 30.6078C405.341 24.6205 415.404 21.627 426.584 21.627C436.561 21.627 444.559 24.6205 450.579 30.6078C456.6 36.4239 459.609 44.3784 459.609 54.4711C459.609 66.2745 455.309 76.4528 446.709 85.0058C438.389 93.2803 424.202 99.888 404.148 104.829C403.751 104.926 403.545 105.368 403.745 105.723C407.915 113.123 414.754 116.824 424.262 116.824C431.314 116.824 437.077 115.199 441.549 111.949C443.886 110.313 447.922 106.164 451.355 102.446C455.014 98.4846 460.925 97.4583 465.607 100.134V100.134ZM422.198 46.7733C415.834 46.7733 410.415 50.4511 405.943 57.8069C401.258 65.8215 399.587 75.0423 399.497 84.2134C399.493 84.6181 399.874 84.9162 400.27 84.8192C410.05 82.4259 417.79 78.8959 423.488 74.2289C429.336 69.4392 432.26 63.8796 432.26 57.5503C432.26 54.3 431.314 51.7341 429.422 49.8524C427.702 47.7997 425.294 46.7733 422.198 46.7733Z" fill="#4500DE"/>
<path d="M193.835 144.672C183.676 143.716 175.215 140.405 168.455 134.739C161.882 128.917 157.179 121.71 154.343 113.119C151.508 104.527 150.537 95.5036 151.432 86.0485C152.668 72.9834 156.176 61.6065 161.958 51.9175C167.927 42.073 175.399 34.7112 184.374 29.8321C193.364 24.7812 203.112 22.7499 213.616 23.7383C223.776 24.6943 232.228 28.0912 238.972 33.929C245.733 39.5949 250.531 46.7238 253.366 55.3156C256.202 63.9075 257.172 72.9309 256.278 82.3859C255.041 95.4509 251.439 106.906 245.469 116.75C239.516 126.423 231.958 133.777 222.795 138.811C213.82 143.691 204.167 145.644 193.835 144.672ZM199.311 117.09C205.166 117.641 210.375 114.922 214.937 108.934C219.671 102.963 222.616 93.8741 223.771 81.6686C224.666 72.2136 223.618 64.9174 220.63 59.7799C217.641 54.6424 213.736 51.8468 208.915 51.3931C202.716 50.8098 197.249 53.5039 192.514 59.4757C187.968 65.2917 185.11 74.3884 183.939 86.7659C183.011 96.5644 184.05 103.947 187.055 108.912C190.06 113.878 194.145 116.604 199.311 117.09Z" fill="#4500DE"/>
<path d="M386.072 83.4099C388.234 83.4099 389.897 84.4065 391.061 86.3997C392.392 88.3929 393.057 91.1332 393.057 94.6206C393.057 100.766 389.232 103.921 386.072 108.073C378.255 118.205 370.77 128.17 359.127 133.983C347.651 139.796 334.677 142.702 320.207 142.702C308.897 142.702 299.084 141.041 290.767 137.72C282.451 134.232 276.048 129.581 271.557 123.769C267.233 117.79 265.07 111.146 265.07 103.838C265.07 92.8769 269.478 83.1611 278.293 74.6907C286.677 66.6346 303.999 54.7228 319.84 46.8612C320.422 46.5724 320.215 45.682 319.566 45.682H280.23C273.587 45.682 268.202 40.2969 268.202 33.6541V33.6541C268.201 27.0116 273.588 21.6271 280.23 21.6271C306.782 21.6274 331.016 21.627 358.378 21.627C361.04 21.627 363.202 22.7895 364.865 25.1147C366.695 27.4399 367.61 31.0107 367.61 35.8271C367.61 41.1418 366.362 45.2939 363.867 48.2834C361.373 51.2729 357.463 53.9302 352.141 56.2554C337.006 62.7327 324.448 69.7082 314.469 77.182C304.489 84.4899 299.5 91.7976 299.5 99.1053C299.5 103.755 301.662 107.575 305.986 110.565C310.311 113.555 316.714 115.049 325.197 115.049C334.511 115.049 343.908 112.724 353.389 108.073C363.036 103.423 371.685 96.3643 379.335 86.898C381.331 84.5726 383.576 83.4099 386.072 83.4099Z" fill="#4500DE"/>
<path fill-rule="evenodd" clip-rule="evenodd" d="M48.9126 1.40693C57.0616 2.26058 62.9754 9.55217 62.1214 17.6931C60.7146 31.1048 55.0899 64.0695 75.6525 66.2506C95.1355 68.3171 102.358 32.8043 106.519 22.952C112.008 9.95288 133.301 9.46703 136.367 26.1894C140.808 50.4157 142.668 84.1558 136.748 115.884C153.696 121.894 146.433 148.09 128.858 144.399C117.284 174.594 95.094 200.89 55.9312 206.04C34.4027 208.871 15.3192 203.624 6.05176 187.823C-2.85389 172.64 1.46749 154.524 10.8025 141.03C27.0102 117.601 61.2928 101.014 106.968 108.207C107.51 108.292 108.03 107.93 108.121 107.388C109.661 98.2026 110.48 88.7527 110.731 79.4516C110.757 78.5028 109.553 78.0547 108.921 78.7629C100.47 88.234 87.6594 96.613 71.7159 94.9219C51.5555 92.7835 38.1021 79.6386 33.4248 60.2865C29.6878 44.8253 31.3118 26.991 32.6114 14.6018C33.4653 6.46083 40.7637 0.553282 48.9126 1.40693ZM99.8685 137.079C65.0012 132.295 43.4891 145.919 35.2125 157.884C29.6401 165.939 30.7099 171.232 31.6519 172.838C32.2322 173.828 36.0957 178.75 52.0568 176.651C75.6172 173.552 90.7383 158.903 99.8685 137.079Z" fill="#4500DE"/>
</svg>
